<?xml version="1.0" encoding="utf-8"?>
<!-- Generator: Adobe Illustrator 18.0.0, SVG Export Plug-In . SVG Version: 6.00 Build 0)  -->
<!DOCTYPE svg PUBLIC "-//W3C//DTD SVG 1.1//EN" "http://www.w3.org/Graphics/SVG/1.1/DTD/svg11.dtd">
<svg version="1.1" id="Layer_1" xmlns="http://www.w3.org/2000/svg" xmlns:xlink="http://www.w3.org/1999/xlink" x="0px" y="0px"
	 viewBox="0 0 373 318.6" enable-background="new 0 0 373 318.6" xml:space="preserve">
<circle fill="#ECF0F1" stroke="#000000" stroke-miterlimit="10" stroke-opacity="0" cx="195" cy="166.4" r="132"/>
<circle fill="#ECF0F1" fill-opacity="0" stroke="#59ABE3" stroke-width="14" stroke-miterlimit="10" cx="195.8" cy="165.6" r="97.8"/>
<path fill="#ECF0F1" stroke="#000000" stroke-miterlimit="10" stroke-opacity="0" d="M11.3,4.2l-6,25l-2.6,12l-2.3,11v5.7v5.3v6.3v6
	l2.9,6.7l2.5,7.3l6.8,11.3l12.2,13.7l1.6,4.3v6.3v7.7v11.3l-1.6,13l-3,22l-2.3,23.7l-4.3,30.7l-1.8,19.3l-1.8,9c0,0,1.4,52,18.4,56
	s19.4-46,19.4-46v-16.3l-3.1-17.7l-2.7-18.3l-2.4-24l-3.3-22l-1.3-21l-1.7-21l-1.7-10.7l1.3-5l2.7-3.3l5.3-5.7l5-6.3l7-9.3l3-8
	l2.4-8L60.5,64V53.2l-2.4-12.8L50.7,4.2l-1.9-1.3l-0.1,2.7l0.5,64.2l-1.3,2h-2.3l-1.5-1l-0.8-1.9L38,3.7l-1.8,1l-2.7,65.7l-1.7,1.3
	h-2.2l-0.8-1l-1-1.9l-4-65.2L22,4.7l-3.7,65.2l-1.5,1L15,71l-2.2-0.3l-1.3-3.5L11.3,4.2z"/>
<polygon fill="#ECF0F1" stroke="#000000" stroke-miterlimit="10" stroke-opacity="0" points="367.5,18.4 372.5,310.5 372.5,313.1 
	370.8,314.6 369,317.2 366,317.2 362.3,318.1 360,318.1 357,318.1 355,315.6 352.5,313.6 352.5,312.3 350.5,310.7 350.5,309.6 
	349.8,144.2 348,144.2 346.9,142.9 345.3,141.3 342.9,137.6 340.9,132.3 339.3,123.4 338.1,115.9 336.5,104.7 336.5,95.4 
	338.4,69.2 340.1,54.3 345.6,26.2 349.7,14.1 352.5,8.8 355,5.3 357.6,3.5 359.6,2.7 362,2.7 365.4,3.4 366.8,5.7 "/>
</svg>
