<?xml version="1.0" encoding="utf-8"?>
<!-- Generator: Adobe Illustrator 18.0.0, SVG Export Plug-In . SVG Version: 6.00 Build 0)  -->
<!DOCTYPE svg PUBLIC "-//W3C//DTD SVG 1.1//EN" "http://www.w3.org/Graphics/SVG/1.1/DTD/svg11.dtd">
<svg version="1.1" id="Layer_1" xmlns="http://www.w3.org/2000/svg" xmlns:xlink="http://www.w3.org/1999/xlink" x="0px" y="0px"
	 viewBox="0 0 960 560" enable-background="new 0 0 960 560" xml:space="preserve">
<path fill="#ECECEC" stroke="#000000" stroke-miterlimit="10" stroke-opacity="0" d="M904.1,560H58.1C26.2,560,0,533.6,0,501.4V58.6
	C0,26.4,26.2,0,58.1,0h845.9c32,0,58.1,26.4,58.1,58.6v442.9C962.2,533.7,936,560,904.1,560z"/>
<g>
	<circle fill="#E87E04" cx="847.7" cy="164.1" r="198.2"/>
	<g enable-background="new    ">
		<path fill="#FFFFFF" d="M821.6,45.4c12.8,0.9,32.5,4.5,51.9,10c27.7,7.9,44.2,17.9,54.5,32.5c8.8,11.4,11.8,26.1,7,43
			c-5.9,20.7-24.8,34.9-49.9,36.7l-0.2,0.7c19,10.9,38,34.7,28.9,66.5c-5.3,18.5-16.6,30.4-30.4,37.8c-18.9,9.4-45,8.8-79.9-1.2
			c-19.1-5.5-33.4-10.9-42.2-14.9L821.6,45.4L821.6,45.4z M824.1,141.2l25.1,7.2c29.3,8.4,50.9-1.9,56.8-22.6
			c7.2-25.1-9-40.5-37.1-48.5c-12.8-3.7-20.3-4.8-25.1-5.1L824.1,141.2L824.1,141.2z M794.6,244.1c5.1,2.5,13.1,5.1,22.8,7.9
			c28.7,8.2,58.1,5.3,67.1-25.9c8.4-29.3-13.2-48.6-43.5-57.3l-22.9-6.6L794.6,244.1z"/>
	</g>
	<line fill="none" stroke="#FFFFFF" stroke-width="23" stroke-miterlimit="10" x1="843.8" y1="59.8" x2="799.8" y2="50.7"/>
	<line fill="none" stroke="#FFFFFF" stroke-width="23" stroke-miterlimit="10" x1="800.8" y1="263.7" x2="742" y2="244.1"/>
	<line fill="none" stroke="#FFFFFF" stroke-width="23" stroke-miterlimit="10" x1="874.9" y1="24.6" x2="865.4" y2="57.7"/>
	<line fill="none" stroke="#FFFFFF" stroke-width="23" stroke-miterlimit="10" x1="899.7" y1="31.8" x2="890.2" y2="64.8"/>
	<line fill="none" stroke="#FFFFFF" stroke-width="23" stroke-miterlimit="10" x1="806.3" y1="263.7" x2="796.8" y2="296.8"/>
	<line fill="none" stroke="#FFFFFF" stroke-width="23" stroke-miterlimit="10" x1="831.3" y1="270.9" x2="821.8" y2="304"/>
</g>
<g>
	<circle fill="#E87E04" cx="97.9" cy="170.7" r="62.9"/>
	<g enable-background="new    ">
		<path fill="#FFFFFF" d="M84,134.7c4.1-0.3,10.4-0.2,16.8,0.7c9.1,1.2,14.7,3.5,18.6,7.6c3.3,3.2,5,7.6,4.2,13.1
			c-0.9,6.8-6.1,12.1-13.9,13.9l0,0.2c6.5,2.5,13.6,9.1,12.2,19.5c-0.8,6.1-3.8,10.3-7.7,13.3c-5.5,3.9-13.7,4.9-25.1,3.4
			c-6.2-0.8-11-1.8-13.9-2.7L84,134.7L84,134.7z M89.4,164.7l8.2,1.1c9.6,1.2,15.9-3,16.7-9.8c1.1-8.2-4.8-12.3-14-13.4
			c-4.2-0.5-6.6-0.5-8.1-0.4L89.4,164.7L89.4,164.7z M85,198.3c1.7,0.5,4.3,1,7.5,1.4c9.4,1.2,18.5-1.1,19.8-11.3
			c1.2-9.6-6.5-14.6-16.4-15.9l-7.5-1L85,198.3z"/>
	</g>
	<line fill="none" stroke="#FFFFFF" stroke-width="8" stroke-miterlimit="10" x1="89.2" y1="137.9" x2="75" y2="137.1"/>
	<line fill="none" stroke="#FFFFFF" stroke-width="8" stroke-miterlimit="10" x1="87.2" y1="203.3" x2="67.8" y2="199.9"/>
	<line fill="none" stroke="#FFFFFF" stroke-width="7" stroke-miterlimit="10" x1="99.7" y1="125.7" x2="98.3" y2="136.5"/>
	<line fill="none" stroke="#FFFFFF" stroke-width="7" stroke-miterlimit="10" x1="107.9" y1="126.7" x2="106.5" y2="137.5"/>
	<line fill="none" stroke="#FFFFFF" stroke-width="8" stroke-miterlimit="10" x1="89.6" y1="203.9" x2="88.2" y2="214.7"/>
	<line fill="none" stroke="#FFFFFF" stroke-width="8" stroke-miterlimit="10" x1="97.8" y1="205" x2="96.4" y2="215.8"/>
</g>
<path fill="#ECECEC" stroke="#000000" stroke-miterlimit="10" stroke-opacity="0" d="M960,0l-0.5,41.2c0,0,1.7-41.2-59.8-41.2"/>
<text transform="matrix(1 0 0 1 199 226.5662)" font-family="'Corbel-BoldItalic'" font-size="143">bitcoin</text>
</svg>
