<?xml version="1.0" encoding="utf-8"?>
<!-- Generator: Adobe Illustrator 18.0.0, SVG Export Plug-In . SVG Version: 6.00 Build 0)  -->
<!DOCTYPE svg PUBLIC "-//W3C//DTD SVG 1.1//EN" "http://www.w3.org/Graphics/SVG/1.1/DTD/svg11.dtd">
<svg version="1.1" id="Layer_1" xmlns="http://www.w3.org/2000/svg" xmlns:xlink="http://www.w3.org/1999/xlink" x="0px" y="0px"
	 viewBox="0 0 608.7 556.7" enable-background="new 0 0 608.7 556.7" xml:space="preserve">
<polygon fill="#EACF93" points="318.1,132.9 164,132.9 56.6,190.4 1.9,268.8 16.4,281 1.9,361.5 18.4,371.5 12.5,445 30.8,456.2 
	53.2,530 165.3,556.7 152.7,516.3 157.6,517.2 236.2,539.3 260.1,545.8 280.6,549.7 301.8,553.1 318.3,556.2 339.6,556.2 
	455.6,541.8 505.3,556.2 538.5,470 "/>
<path fill="#FDE3A7" d="M50.3,530.6l115,26.1c0,0-3.7-54.9-21.4-64s-46.1-18.3-46.1-18.3l-40.7,2L50.3,530.6z"/>
<polygon fill="#BDC3C7" points="95.8,209.7 112.7,191.4 101.8,181.6 85,199.9 "/>
<polygon fill="#52666C" points="223.7,138.3 252.8,138.1 252.7,121.3 223.5,121.6 "/>
<ellipse fill="#6C7A89" stroke="#231F20" stroke-miterlimit="10" stroke-opacity="0" cx="246.5" cy="336.5" rx="200.5" ry="200.8"/>
<ellipse fill="#ECECEC" cx="247.4" cy="339.5" rx="174.4" ry="173.9"/>
<path fill="#D24D57" stroke="#D6C17F" stroke-miterlimit="10" stroke-opacity="0" d="M233.7,166.1V339l166.6-54.2
	c0,0-13.4-55.7-42-79.7c-30.2-25.4-46.8-33.9-94-38.7c-3.2-0.3-6.6-0.5-10.2-0.7c-1.2-0.1-2.3-0.1-3.7-0.1
	C245.6,165.6,240.8,165.4,233.7,166.1z"/>
<polygon fill="#6C7A89" stroke="#231F20" stroke-miterlimit="10" stroke-opacity="0" points="217.8,119.7 230.3,121 237.2,120.4 
	257.1,119.7 257.1,95.4 217.7,97.1 "/>
<g>
	<g>
		<path fill="#6C7A89" d="M254.7,118.6c-1.3,1.7-6.4,1.2-8.2,1.3c-3.1,0.2-6.2,0.3-9.2,0.3c-5.3,0.1-13,0.7-17.4-2.5
			c-1.6-1.2-3,1.5-1.5,2.6c5.4,4,14.4,3,20.7,2.9c4.3-0.1,8.6-0.4,12.9-0.6c2.4-0.2,3.8-0.5,5.3-2.4
			C258.4,118.6,255.8,117.1,254.7,118.6L254.7,118.6z"/>
	</g>
</g>
<g>
	<g>
		<path fill="#6C7A89" d="M257.3,95.9c-1.2-1.1-2.6-1.4-4.1-2.1c-1.4-0.7-3.9-0.5-5.4-0.7c-2.1-0.4-3.9-0.9-6.1-1
			c-4.5-0.2-9.3,0.3-13.9,0.7c-3.8,0.3-7,0.8-10,3.3c-1.5,1.2,0.7,3.4,2.1,2.1c4.9-4.1,15.6-3.1,21.7-3.1c2.4,0,4.6,0.9,7,1.1
			c1.3,0.1,5.3,0.6,6.5,1.8C256.6,99.4,258.7,97.3,257.3,95.9L257.3,95.9z"/>
	</g>
</g>
<ellipse transform="matrix(-0.9999 -1.600379e-002 1.600379e-002 -0.9999 472.8115 196.1302)" fill="#52666C" stroke="#52666C" stroke-miterlimit="10" cx="237.2" cy="96.2" rx="15.7" ry="2.4"/>
<path fill="#FDE3A7" d="M329.3,22.2l121.3,89.6l30.8,30.5l127.3,156.5l-68.6,171.3l-26.8-13.8c0,0-24.9-24.6-33.8-31.5
	S330.7,155.2,330.7,155.2l-26.5-38l-27.4-7.9c0,0-15.9-3.9-30.8-8.9s-53.7-25.6-53.7-25.6s-28.4-17.3-34.4-34.5
	C151.9,23.2,175.8,0,175.8,0"/>
<path fill="#FBC6B4" d="M241.9,47.2c0,0-23.2-2.6-47.5-14.3S182.3,1,182.3,1l74.9,10.6L241.9,47.2z"/>
<polygon fill="#6C7A89" stroke="#6C7A89" stroke-miterlimit="10" stroke-opacity="0" points="80.2,202.4 91.7,191.4 103.6,177.6 
	89,163.2 65,187.3 "/>
<g>
	<g>
		<path fill="#6C7A89" d="M101,178.8c0.3,1.7-2.9,4.5-3.9,5.7c-1.7,2-3.4,4-5.2,5.9c-3,3.2-7.2,8.5-11.7,9.3
			c-1.9,0.3-1.1,3.2,0.8,2.9c5.7-1,10.3-7.1,14-11.2c2.5-2.7,4.8-5.6,7.2-8.4c1.4-1.7,2-2.8,1.6-4.9
			C103.6,176.1,100.7,176.9,101,178.8L101,178.8z"/>
	</g>
</g>
<g>
	<g>
		<path fill="#6C7A89" d="M67.9,186.5c-0.3-1.7,2.9-4.5,3.9-5.7c1.7-2,3.4-4,5.2-5.9c3-3.2,7.2-8.5,11.7-9.3
			c1.9-0.3,1.1-3.2-0.8-2.9c-5.7,1-10.3,7.1-14,11.2c-2.5,2.7-4.8,5.6-7.2,8.4c-1.4,1.7-2,2.8-1.6,4.9
			C65.4,189.2,68.2,188.4,67.9,186.5L67.9,186.5z"/>
	</g>
</g>
<path fill="#52666C" stroke="#52666C" stroke-miterlimit="10" d="M67.2,187.2c0.8,0.8,6.1-3.3,11.7-9c5.6-5.8,9.5-11.1,8.7-11.9
	c-0.8-0.8-6.1,3.3-11.7,9S66.4,186.4,67.2,187.2z"/>
<line fill="none" stroke="#F22613" stroke-width="3" stroke-miterlimit="10" x1="240.1" y1="335.9" x2="117.5" y2="401.1"/>
<ellipse fill="#6C7A89" stroke="#231F20" stroke-miterlimit="10" stroke-opacity="0" cx="240.1" cy="335.8" rx="17" ry="16.4"/>
<path fill="#6C7A89" stroke="#231F20" stroke-miterlimit="10" stroke-opacity="0" d="M236.9,338.5h6.4c1.8,0,3.2-1.5,3.2-3.2V213
	c0-1.8-1.5-3.2-3.2-3.2h-6.4c-1.8,0-3.2,1.5-3.2,3.2v122.3C233.7,337,235.1,338.5,236.9,338.5z"/>
<path fill="#6C7A89" stroke="#231F20" stroke-miterlimit="10" stroke-opacity="0" d="M343.2,312.5l-1.7-6.1c-0.5-1.7-2.3-2.7-4-2.3
	L252.9,327c-1.7,0.5-2.8,2.3-2.3,4l1.7,6.1c0.5,1.7,2.3,2.7,4,2.3l84.7-22.8C342.6,316.1,343.6,314.3,343.2,312.5z"/>
<g>
	<g>
		<path fill="#F22613" d="M117.9,402.4c1.9,0,1.9-3,0-3C116,399.4,116,402.4,117.9,402.4L117.9,402.4z"/>
	</g>
</g>
<path fill="#FDE3A7" d="M1.9,268.8l89.8,75.8c0,0,22.3-50.4,11-66.5c-11.4-16.1-32.4-37.3-32.4-37.3l-37-16.9L1.9,268.8z"/>
<path fill="#FDE3A7" d="M0,360.7l101.8,59c0,0,13.1-53.5-1-67.4s-38.5-31.1-38.5-31.1L22.9,311L0,360.7z"/>
<path fill="#FDE3A7" d="M9.9,443.4l22.2,13.5l79.6,45.5c0,0,13.1-53.5-1-67.4c-14-13.9-38.5-31.1-38.5-31.1l-39.4-10.2L9.9,443.4z"
	/>
<path fill="#FBC6B4" d="M65.2,286.1c0,0,14.1,11.1,25.1,28.5c11,17.4-5,25.5-5,25.5l-43.7-37.8L65.2,286.1z"/>
<path fill="#FBC6B4" d="M66.4,365.3c0,0,15.6,8.8,29.2,24.4s-1,26-1,26l-50-29.1L66.4,365.3z"/>
<path fill="#FBC6B4" d="M78.7,449.2c0,0,15.6,8.9,29.1,24.5s-1.1,26-1.1,26l-49.9-29.2L78.7,449.2z"/>
<path fill="#FBC6B4" d="M116.7,516.4c0,0,17.6,3.7,35.3,14.4c17.7,10.7,7.4,24.6,7.4,24.6l-56.9-12.9L116.7,516.4z"/>
<polygon fill="#FDE3A7" points="50.3,530.6 30.8,456.2 66.3,475.9 "/>
<polyline fill="#FDE3A7" points="32.9,393.7 16.9,390.5 9.9,443.4 "/>
<polygon fill="#EACF93" points="73.3,404 73.3,402.1 18.5,371.5 17,390.5 "/>
<polygon fill="#FDE3A7" points="22.9,311 11.4,308.9 0,360.7 "/>
<polygon fill="#EACF93" points="62.4,321.2 60.6,318.7 16.4,281 11.4,308.9 "/>
<polygon fill="#EACF93" points="57.1,476.4 32.1,456.9 66.3,475.9 "/>
<path fill="#D6C17F" d="M324.6,26.3"/>
<g>
	<g>
		<path fill="#D6C17F" d="M325.6,24.5c-3.2,2.6-6.9,5.2-9.2,8.7c-1.4,2.2-1.6,5.2-2.3,7.7c-0.1,0.5,0.6,0.7,0.7,0.2
			c0.7-2.4,0.9-5,2.1-7.2c1.9-3.6,6.2-6.4,9.3-8.9C326.5,24.7,325.9,24.2,325.6,24.5L325.6,24.5z"/>
	</g>
</g>
<g>
	<g>
		<path fill="#D6C17F" d="M319.7,24.4c-2.2,1.6-4.7,3.2-6.3,5.4c-1,1.4-1.2,3.3-1.7,4.9c-0.2,0.5,0.6,0.7,0.7,0.2
			c0.5-1.4,0.6-3,1.4-4.4c1.3-2.3,4.3-4,6.3-5.5C320.4,24.8,320.1,24.1,319.7,24.4L319.7,24.4z"/>
	</g>
</g>
<g>
	<g>
		<path fill="#D6C17F" d="M315.7,23.3c-3.1,1.8-7.1,3.5-9.4,6.4c-1.2,1.5-1.5,3.6-2.2,5.3c-0.2,0.4,0.5,0.6,0.7,0.2
			c0.7-1.7,1-3.8,2.2-5.2c2.2-2.7,6.1-4.4,9.1-6.1C316.5,23.7,316.1,23,315.7,23.3L315.7,23.3z"/>
	</g>
</g>
<rect x="255.8" y="190.7" fill="none" width="82.2" height="72.2"/>
<text transform="matrix(1.0101 0 0 1 296.8777 217.2579)"><tspan x="0" y="0" font-family="'MyriadPro-Regular'" font-size="37.4096">         </tspan><tspan x="-23.9" y="44.9" fill="#FFFFFF" font-family="'MyriadPro-Regular'" font-size="37.4096">1 h </tspan></text>
</svg>
