<?xml version="1.0" encoding="utf-8"?>
<!-- Generator: Adobe Illustrator 18.0.0, SVG Export Plug-In . SVG Version: 6.00 Build 0)  -->
<!DOCTYPE svg PUBLIC "-//W3C//DTD SVG 1.1//EN" "http://www.w3.org/Graphics/SVG/1.1/DTD/svg11.dtd">
<svg version="1.1" id="Layer_1" xmlns="http://www.w3.org/2000/svg" xmlns:xlink="http://www.w3.org/1999/xlink" x="0px" y="0px"
	 viewBox="0 0 960 557.1" enable-background="new 0 0 960 557.1" xml:space="preserve">
<g>
	<path fill="#336E7B" stroke="#000000" stroke-miterlimit="10" stroke-opacity="0" d="M902,557.1H58c-31.9,0-58-26.1-58-58V60.9
		c0-31.9,26.1-58,58-58h844c31.9,0,58,26.1,58,58v438.2C960,531,933.9,557.1,902,557.1z"/>
	<rect y="99.5" fill="#22313F" stroke="#000000" stroke-miterlimit="10" stroke-opacity="0" width="960" height="106.3"/>
	<path fill="#FFFFFF" stroke="#000000" stroke-miterlimit="10" stroke-opacity="3.000000e-002" d="M395.2,370.1H61.8
		c-16.4,0-30-13.5-30-30v-72.5c0-16.4,13.5-30,30-30h333.4c16.4,0,30,13.5,30,30v72.5C425.2,356.6,411.6,370.1,395.2,370.1z"/>
</g>
</svg>
