<?xml version="1.0" encoding="utf-8"?>
<!-- Generator: Adobe Illustrator 18.0.0, SVG Export Plug-In . SVG Version: 6.00 Build 0)  -->
<!DOCTYPE svg PUBLIC "-//W3C//DTD SVG 1.1//EN" "http://www.w3.org/Graphics/SVG/1.1/DTD/svg11.dtd">
<svg version="1.1" id="Layer_1" xmlns="http://www.w3.org/2000/svg" xmlns:xlink="http://www.w3.org/1999/xlink" x="0px" y="0px"
	 viewBox="200.5 0 559.5 502.6" enable-background="new 200.5 0 559.5 502.6" xml:space="preserve">
<g>
	<g>
		<defs>
			<circle id="SVGID_1_" cx="480" cy="280" r="280"/>
		</defs>
		<clipPath id="SVGID_2_">
			<use xlink:href="#SVGID_1_"  overflow="visible"/>
		</clipPath>
		<g clip-path="url(#SVGID_2_)">
			
				<rect x="725" y="201.9" fill="#129247" stroke="#000000" stroke-miterlimit="10" stroke-opacity="0" width="115.6" height="88.1"/>
			<polygon fill="#E9CF93" stroke="#000000" stroke-miterlimit="10" stroke-opacity="0" points="726,203.8 683.1,184 666,176.5 
				652.9,172.3 635.8,169.6 618.7,168.2 598.5,160.6 594.4,160.6 589.9,161.8 589.9,166.9 594.1,171.3 598.6,177.6 628.1,190.1 
				618.7,192 617.8,285.1 628.2,289.2 637.6,291.9 652,291.9 688.8,280.6 713.2,274.9 725.7,277.6 			"/>
			<polygon fill="#F39C12" stroke="#000000" stroke-miterlimit="10" stroke-opacity="0" points="115.4,453.5 317.2,336.5 361.8,413 
				371,429 115.4,575.3 			"/>
			<path fill="#F3CF93" stroke="#000000" stroke-miterlimit="10" stroke-opacity="0" d="M399.3,390.9l-36.9,22.8l-35.6-61.4
				l24.4-16.8c0,0,13.4-24.2,31.2-25.6c17.7-1.4,39.9,0,39.9,0l71.2-0.6c0,0,9,10.6-4.3,15.8c-13.1,5.2-13.1,5.2-13.1,5.2l-5.2,1.3
				l-7.3,0.8l-5.7,0.9l-2.2,0.5l-2.2,0.3l-4,0.5l-3.6,0.5l-4.3,0.3l1.3,1.1l4.7,2.8l6.6,1.3l7.1,1.9l7.1,2.8l9.8,2.1l8.7,1.9
				l4.7,1.1l3.6-1.6l8.2-2.7l7.1-2.8l7.1-3.2l5.9-2.4l4.7-1.3l3.5-2.1l17.7-15.3l7.1-3.5l6-3.5l6-1.4l3.6-0.5h6l5.1,1.3l2.7,0.6
				l1.4,3.6l1.3,2.8v2.1v1.6l-4.9,3.6l-3.5,3.6l-4.4,4.3l-6.8,5.1l-7.1,5.2l-5.2,5.5l-9.5,7.6L540,361l-9.2,7l-10.3,5.9l-24,14.6
				L399.3,390.9z"/>
			<polygon fill="#95A5A6" stroke="#000000" stroke-miterlimit="10" stroke-opacity="0" points="459.8,103.3 459.3,89.4 484,89.4 
				484,102 			"/>
			<ellipse fill="#DADFE1" stroke="#000000" stroke-miterlimit="10" stroke-opacity="0" cx="472.2" cy="81.6" rx="21.2" ry="16.8"/>
			<polygon fill="#DADFE1" stroke="#000000" stroke-miterlimit="10" stroke-opacity="0" points="294,288.7 310.4,310.8 633.4,310.8 
				650.1,288.7 314.7,288.7 			"/>
			<path fill="#DADFE1" stroke="#000000" stroke-miterlimit="10" stroke-opacity="0" d="M633,261.8c0-88.7-71.3-161.2-159.5-161.2
				S313.9,173.2,313.9,262c0,7.3,0.5,14.1,1.4,22h316.2C632.5,276,633,269.1,633,261.8z"/>
			<polygon fill="#FFFFFF" stroke="#000000" stroke-miterlimit="10" stroke-opacity="0" points="314.8,284 294,288.7 649.3,288.7 
				631.5,284 			"/>
			<g>
				
					<rect x="779.9" y="286.2" fill="#26A65B" stroke="#000000" stroke-miterlimit="10" stroke-opacity="0" width="60.4" height="84.6"/>
				<path fill="#FDE3A7" stroke="#000000" stroke-miterlimit="10" stroke-opacity="0" d="M781.2,290.8c0-0.6-0.3-1.1-0.9-1.4
					L748,273.8L728,265h-0.2l-11.9-4c-0.2,0-0.2,0-0.3,0l-13.8-2.2c-0.2,0-0.2,0-0.3,0H689c-0.2,0-0.3,0-0.3,0l-14.2-3.3
					c-0.2,0-0.2,0-0.3-0.2l-16.9-8.5c-0.3-0.2-0.8-0.2-1.1-0.2l-4.7,1.4c-0.6,0.2-1.1,0.8-1.1,1.6v2.7c0,0.3,0,0.5,0.2,0.8l3.5,6.5
					c0.2,0.3,0.3,0.5,0.6,0.6l30.8,16.1c0.5,0.3,0.8,0.8,0.8,1.4l0,0c0,0.8-0.6,1.6-1.6,1.6l-5.5,0.2l-33.7,0.5l-16,0.5h-0.2
					l-20.9,2.7c-0.2,0-0.2,0-0.3,0.2l-7,2.5c-0.6,0.2-1.1,0.8-1.1,1.4v2.4c0,0.3,0.2,0.8,0.5,1.1l3.6,4.1c0.2,0.3,0.5,0.5,0.9,0.5
					l9.8,2.1h0.2l29.9,2.4h0.2h23.3h7l-0.5,0.9c-0.3,0.5-0.8,0.8-1.4,0.8h-5.1h-8.7h-10.3h-0.2l-52.4,5.7c-0.3,0-0.6,0.2-0.8,0.3
					l-4.6,3.5c-0.5,0.5-0.8,1.1-0.5,1.7l0.6,2.4c0,0.2,0.2,0.5,0.3,0.6l3.6,4c0.2,0.2,0.5,0.3,0.6,0.5l5.7,1.9
					c0.2,0,0.3,0.2,0.5,0.2h74.5l0.3,1.9l-0.3,1.6h-5.2h-4.9l-56.9,1.4c-0.3,0-0.6,0.2-0.9,0.3l-3,2.4c-0.3,0.3-0.5,0.6-0.6,0.9
					c-0.2,0.8-0.3,2.4-0.2,2.8c0.2,0.6,2.1,2.8,2.7,3.8c0.2,0.2,0.5,0.3,0.6,0.5l5.2,1.9c0.2,0,0.3,0,0.3,0.2l8.9,1.1l8.9,1.1
					l39.7,3.6v0.6c-0.2,0.6,0,0.8-0.6,0.8l-2.2,0.8c-0.2,0-0.5,0-0.6,0.2l-3.2,1.4c-0.2,0.2-0.5,0.2-0.6,0.2h-9.6h-12h-8.7
					l-15.5,0.5h-0.2l-4.3,0.2l-2.2,1.9l0.6,4.1c0.2,0.3,0.5,0.6,0.8,0.8l5.1,2.5c0.2,0,0.3,0.2,0.3,0.2l9.8,1.9c0.2,0,0.2,0,0.3,0
					h6.8h0.2l10,1.1l19.1,1.9c0.2,0,0.3,0,0.5,0.2l15,5.9c0.2,0,0.3,0.2,0.5,0.2l29.9,1.1c0.2,0,0.3,0,0.3,0l23.3-4.9h0.2l25.9-8.5
					c0.2,0,0.3,0,0.5,0h7.8c0.2,0,0.2,0,0.3,0l10.1,1.7c0.9,0.2,1.9-0.6,1.9-1.6L781.2,290.8z"/>
			</g>
			
				<path opacity="0.54" fill="#F1A9A0" stroke="#000000" stroke-miterlimit="10" stroke-opacity="0" enable-background="new    " d="
				M495,317.8c0,1.7,0.6,3-1.6,4.1c-1.7,0.8-7,2.8-9.5,2.8c-2.4,0-4.4-0.5-6.2-1.3c-2.2-1.1-3.8-2.7-3.8-4.4c0-1.7,1.4-3.3,3.5-4.3
				c1.7-0.8,4-1.4,6.3-1.4c2.2,0,7.8,0,9.3,0.6C495.8,315,495,315.9,495,317.8z"/>
			
				<path opacity="0.54" fill="#F1A9A0" stroke="#000000" stroke-miterlimit="10" stroke-opacity="0" enable-background="new    " d="
				M585.5,320.8c0.6,0.8,1.4,0.9,0.2,2.7c-1.1,1.4-4.7,5.4-6.6,7c-1.9,1.4-3.8,2.5-5.4,3.2c-2.2,0.9-3.8,1.1-4.4,0.3
				c-0.6-0.8,0-2.2,1.4-4c1.1-1.4,2.7-3,4.6-4.4c1.7-1.3,6.2-4.6,7.6-5.4C585.2,319.1,584.9,320,585.5,320.8z"/>
			
				<path opacity="0.54" fill="#F1A9A0" stroke="#000000" stroke-miterlimit="10" stroke-opacity="0" enable-background="new    " d="
				M613,354.4c0-0.9-0.2-1.6,1.1-2.1c1.1-0.5,4.3-1.3,5.7-1.1c1.4,0.2,2.5,0.5,3.6,0.9c1.3,0.6,2.1,1.6,2.1,2.5s-0.9,1.7-2.2,2.2
				c-1.1,0.3-2.4,0.6-3.8,0.5c-1.3,0-4.4-0.3-5.4-0.6C612.4,355.8,613,355.3,613,354.4z"/>
			
				<path opacity="0.54" fill="#F1A9A0" stroke="#000000" stroke-miterlimit="10" stroke-opacity="0" enable-background="new    " d="
				M606.6,333.5c0-0.9-0.2-1.9,1.1-2.4c1.1-0.5,4.3-1.4,5.7-1.3c1.4,0.2,2.5,0.5,3.6,0.9c1.3,0.6,2.1,1.7,2.1,2.8
				c0,1.1-0.9,1.9-2.2,2.5c-1.1,0.5-2.4,0.6-3.8,0.6c-1.3,0-4.4-0.3-5.4-0.8C606.1,335.2,606.6,334.7,606.6,333.5z"/>
			
				<path opacity="0.54" fill="#F1A9A0" stroke="#000000" stroke-miterlimit="10" stroke-opacity="0" enable-background="new    " d="
				M594.1,314c0-1.3-0.2-2.2,1.1-2.8c1.1-0.6,4.3-1.7,5.7-1.6c1.4,0.2,2.5,0.5,3.5,1.1c1.3,0.8,2.1,2.1,2.1,3.3s-0.9,2.4-2.2,3
				c-1.1,0.5-2.4,0.8-3.8,0.8c-1.3,0-4.4-0.3-5.4-0.8C593.4,316.1,593.9,315.4,594.1,314z"/>
			
				<path opacity="0.54" fill="#F1A9A0" stroke="#000000" stroke-miterlimit="10" stroke-opacity="0" enable-background="new    " d="
				M603.4,289.8c0-1.3-0.2-2.1,1.1-2.7c1.1-0.5,4.3-1.7,5.7-1.6c1.4,0.2,2.5,0.5,3.6,1.1c1.3,0.8,2.1,1.9,2.1,3.2s-0.9,2.2-2.2,2.8
				c-1.1,0.5-2.4,0.8-3.8,0.6c-1.3,0-4.4-0.3-5.4-0.8C602.9,291.9,603.4,291.2,603.4,289.8z"/>
			
				<path opacity="0.54" fill="#F1A9A0" stroke="#000000" stroke-miterlimit="10" stroke-opacity="0" enable-background="new    " d="
				M654,247.9c0.3-0.5,0.2-0.9,1.4-0.8c1.1,0.2,4.1,0.9,5.4,1.6c1.3,0.6,2.4,1.3,3.2,1.9c1.1,0.9,1.6,1.7,1.4,2.2
				c-0.3,0.5-1.1,0.6-2.5,0.3c-1.1-0.2-2.2-0.6-3.6-1.3c-1.1-0.5-4.1-1.9-4.9-2.5C653.2,248.5,653.7,248.4,654,247.9z"/>
		</g>
	</g>
</g>
</svg>
