<?xml version="1.0" encoding="utf-8"?>
<!-- Generator: Adobe Illustrator 18.0.0, SVG Export Plug-In . SVG Version: 6.00 Build 0)  -->
<!DOCTYPE svg PUBLIC "-//W3C//DTD SVG 1.1//EN" "http://www.w3.org/Graphics/SVG/1.1/DTD/svg11.dtd">
<svg version="1.1" id="Layer_1" xmlns="http://www.w3.org/2000/svg" xmlns:xlink="http://www.w3.org/1999/xlink" x="0px" y="0px"
	 viewBox="0 0 434.3 339.7" enable-background="new 0 0 434.3 339.7" xml:space="preserve">
<ellipse fill="#F4B350" stroke="#000000" stroke-miterlimit="10" stroke-opacity="0" cx="222.2" cy="245.6" rx="200.4" ry="93.6"/>
<path fill="#007631" stroke="#000000" stroke-miterlimit="10" stroke-opacity="0" d="M345,271.9c-5,5.1-13.5,14-18.6,18.6
	c-2.1,1.9-5,2.6-7.6,1.8l-20.5-6.1c-2.5-0.7-5.1-0.2-7.2,1.5l-13.2,10.7c-6.3,5.1-14.2,6.7-21.6,4.4l-21.6-6.7
	c-1.7-0.5-3.6-0.4-5.2,0.2l-23.5,9.7c-6.5,2.7-13.7,1.9-19.6-2.1l-7.9-5.4c-5.8-3.9-12.7-5.1-19.3-3.3l-14,3.8
	c-7.2,2-14.9-0.2-20.4-5.8c-0.9-0.9-1.7-1.8-2.6-2.6c-4.2-4.4-9.9-6.5-15.6-6l-10.2,0.9c-6.5,0.6-12.8-2.8-16.4-8.9l-3.5-5.8
	c-3.1-5.1-8.2-8.2-13.7-8.2h-8.8c-7.5,0-14.7-3.4-19.9-9.4l-9.3-10.7c-0.5-0.6-1.1-1.1-1.7-1.5c-6.5-4.3-6.5-13.2,0.4-17.5l6-3.8
	l23.4-14.7l20.4-12.8l17.9-11.3l20-12.5c2-1.2,4.3-1.9,6.8-2l23.9-0.6l25.8-0.7l32.5-0.8l29.8-0.8l31.9-0.8l30.1-0.8l32.7-0.8
	c2.4-0.1,4.8,0.5,6.8,1.7l32.6,18.3l26,14.6l24.6,13.8l6.7,3.8c5,2.8,6.6,8,5,12.5c-1.3,3.4-4.3,5.5-7.6,5.6l-0.9,0
	c-4.1,0.1-7.5,3.4-8.2,7.9l-0.9,5.7c-0.7,4.5-4.1,7.7-8.1,7.9l-15,0.7c-3.8,0.2-7,3.1-8,7.2l-1.7,7c-1.3,5.4-6.4,8.5-11.1,6.6
	l-11.3-4.5C350.6,268.8,347.3,269.6,345,271.9z"/>
<ellipse fill="#422F0D" stroke="#000000" stroke-miterlimit="10" stroke-opacity="0" cx="217.9" cy="177.6" rx="200.4" ry="93.6"/>
<ellipse fill="#D91E18" stroke="#000000" stroke-miterlimit="10" stroke-opacity="0" cx="218" cy="158.8" rx="170.6" ry="72.8"/>
<path fill="#F7CA18" stroke="#000000" stroke-miterlimit="10" stroke-opacity="0" d="M334.6,199c-0.2,0-0.3,0-0.5,0.1l-169,29.7
	c-29.8,5.5-49.6,42.5-55.6,33.5l-57.3-95.4c-1.3-2.2-3.2-3.8-5.4-4.6c-15.4-5.7-52.3,6.5-45.4-6.8c5.4-10.4,10.1-27.6,20.8-28
	l313.7-10.4c1.3,0,9.3-1.2,19.4-2.4c26.9-3.3,53.2,11.2,67.4,37.2l0,0c3.7,6.2,15.7,12.5,9.3,20.6c-4.3,5.4-24.1,4.3-41.2,11.7
	C366,195.1,337.5,198.7,334.6,199z"/>
<radialGradient id="SVGID_1_" cx="217.7326" cy="126.293" r="153.9879" gradientTransform="matrix(1 0 0 1.1267 0 -48.1838)" gradientUnits="userSpaceOnUse">
	<stop  offset="0" style="stop-color:#FFFFFF"/>
	<stop  offset="1" style="stop-color:#000000"/>
</radialGradient>
<path fill="#F4B350" stroke="url(#SVGID_1_)" stroke-miterlimit="10" stroke-opacity="0" d="M418.3,94.1
	c0,84.1-89.7,93.6-200.4,93.6S10.3,176.3,17.5,94.1c4.6-51.4,89.7-93.6,200.4-93.6S418.3,42.4,418.3,94.1z"/>
<path fill="#FDE3A7" stroke="#000000" stroke-miterlimit="10" stroke-opacity="0" d="M92,67.3c0,3.3-2.7,6.1-6,6.1
	c-3.3,0-6-2.7-6-6.1c0-3.3,2.7-10.8,6-10.8C89.3,56.5,92,63.9,92,67.3z"/>
<path fill="#FDE3A7" stroke="#000000" stroke-miterlimit="10" stroke-opacity="0" d="M58.4,112.2c2.4,1.9,2.9,5.9,1.1,9
	c-1.9,3.1-5.4,4-7.8,2.1c-2.4-1.9-6.4-8.6-4.5-11.6C49,108.5,55.9,110.3,58.4,112.2z"/>
<path fill="#FDE3A7" stroke="#000000" stroke-miterlimit="10" stroke-opacity="0" d="M117.3,141.6c-1.7,2.7-5.3,3.2-8,1.1
	c-2.7-2.1-3.5-6.1-1.8-8.8s7.7-7.1,10.4-4.9C120.6,131.1,119,138.9,117.3,141.6z"/>
<path fill="#FDE3A7" stroke="#000000" stroke-miterlimit="10" stroke-opacity="0" d="M153.7,35.2c-2.9-0.5-4.9-4-4.3-7.6
	s3.3-6.2,6.3-5.7c2.9,0.5,9,4.7,8.5,8.4C163.5,34,156.6,35.8,153.7,35.2z"/>
<path fill="#FDE3A7" stroke="#000000" stroke-miterlimit="10" stroke-opacity="0" d="M163,87.5c0.9,3.2-1,6.7-4.1,7.8
	c-3.2,1.1-6.4-0.6-7.3-3.8s-0.3-11.2,2.9-12.3C157.7,78.1,162.2,84.3,163,87.5z"/>
<path fill="#FDE3A7" stroke="#000000" stroke-miterlimit="10" stroke-opacity="0" d="M195,131.2c1.1-3.1,4.4-4.6,7.5-3.2
	c3.1,1.3,4.7,5,3.6,8.1c-1.1,3.1-6,9-9,7.6C194,142.3,193.9,134.3,195,131.2z"/>
<path fill="#FDE3A7" stroke="#000000" stroke-miterlimit="10" stroke-opacity="0" d="M210.7,58.5c-1.1-3.1,0.4-6.7,3.5-8.2
	s6.4,0,7.6,3.1c1.1,3.1,1.1,11.1-1.9,12.5C216.8,67.3,211.8,61.6,210.7,58.5z"/>
<path fill="#FDE3A7" stroke="#000000" stroke-miterlimit="10" stroke-opacity="0" d="M292.2,154c1.4,2.9,0.3,6.8-2.6,8.6
	c-2.9,1.8-6.4,0.9-7.8-2c-1.4-2.9-2.3-10.9,0.6-12.7C285.2,146.1,290.8,151.1,292.2,154z"/>
<path fill="#FDE3A7" stroke="#000000" stroke-miterlimit="10" stroke-opacity="0" d="M257.2,103.3c-2.9-0.5-4.9-3.9-4.4-7.6
	s3.3-6.2,6.2-5.7c2.9,0.5,9,4.6,8.5,8.3C267,101.9,260.1,103.8,257.2,103.3z"/>
<path fill="#FDE3A7" stroke="#000000" stroke-miterlimit="10" stroke-opacity="0" d="M275,28c1.3,3,0,6.8-2.9,8.4
	c-2.9,1.7-6.4,0.6-7.8-2.4c-1.3-3-1.9-11,1-12.7C268.3,19.8,273.7,25.1,275,28z"/>
<path fill="#FDE3A7" stroke="#000000" stroke-miterlimit="10" stroke-opacity="0" d="M322.7,58.4c-1.1-3.1,0.5-6.7,3.6-8.1
	c3.1-1.4,6.4,0,7.5,3.1s1,11.1-2,12.5C328.8,67.3,323.8,61.5,322.7,58.4z"/>
<path fill="#FDE3A7" stroke="#000000" stroke-miterlimit="10" stroke-opacity="0" d="M352.2,133.1c2,2.5,1.6,6.5-0.9,9
	c-2.5,2.5-6.1,2.4-8-0.1c-2-2.5-4.3-10.1-1.9-12.5C343.8,127,350.2,130.6,352.2,133.1z"/>
<path fill="#FDE3A7" stroke="#000000" stroke-miterlimit="10" stroke-opacity="0" d="M387.1,87.9c0.7,3.3-1.3,6.6-4.5,7.5
	c-3.2,0.9-6.4-1-7.1-4.3c-0.7-3.3,0.3-11.2,3.5-12.1C382.2,78.2,386.4,84.7,387.1,87.9z"/>
</svg>
