<?xml version="1.0" encoding="utf-8"?>
<!-- Generator: Adobe Illustrator 18.0.0, SVG Export Plug-In . SVG Version: 6.00 Build 0)  -->
<!DOCTYPE svg PUBLIC "-//W3C//DTD SVG 1.1//EN" "http://www.w3.org/Graphics/SVG/1.1/DTD/svg11.dtd">
<svg version="1.1" id="Layer_1" xmlns="http://www.w3.org/2000/svg" xmlns:xlink="http://www.w3.org/1999/xlink" x="0px" y="0px"
	 viewBox="0 0 324.7 316.7" enable-background="new 0 0 324.7 316.7" xml:space="preserve">
<path fill="#E86E41" stroke="#000000" stroke-miterlimit="10" stroke-opacity="0" d="M280.7,316.2H28c-15.1,0-27.5-12.2-27.5-27.2
	V158.1c0-12.3,8.4-22.8,19.8-26.1c2.5-0.7,5.1-1.1,7.7-1.1h252.7c15.1,0,27.5,12.2,27.5,27.2V289
	C308.2,303.9,295.8,316.2,280.7,316.2z"/>
<path fill="#F2784B" stroke="#000000" stroke-miterlimit="10" stroke-opacity="0" d="M23.7,131.3c-2.7,0.5-4.2,0.9-6,1.6
	C5.4,137.8,1,153.2,1,153.2l0.4-43.8l2.7,7.5l2.8,4.8l5,4l2.3,1.5l2.5,1.7L23.7,131.3z"/>
<path fill="#F2784B" stroke="#000000" stroke-miterlimit="10" stroke-opacity="0" d="M311.1,258.6h-92.2c-7.2,0-13-5.4-13-12v-22.2
	v-21c0-6.6,5.9-12,13-12h89.9h2.3c7.2,0,13,5.4,13,12v43.3C324.2,253.2,318.3,258.6,311.1,258.6z"/>
<path fill="#DE6437" stroke="#000000" stroke-miterlimit="10" stroke-opacity="0" d="M308.7,187c0,0,10.4,1.9,10.4-5.8
	c0-2.1-0.1-2.7-2.1-3.8c-3.5-1.9-8.4-2.9-8.4-2.9V187z"/>
<path fill="#F2784B" stroke="#000000" stroke-miterlimit="10" stroke-opacity="0" d="M317.7,178.1l4,4.1l1.3,5l0.7,5v4.7v5v4.5h-0.5
	c0,0,2-15-15-15v-4.5C308.2,186.9,322.4,187.1,317.7,178.1z"/>
<circle fill="#F7CA18" stroke="#000000" stroke-miterlimit="10" stroke-opacity="0" cx="254.7" cy="224" r="22.2"/>
<path fill="#F2784B" stroke="#000000" stroke-miterlimit="10" stroke-opacity="0" d="M301.3,140.2l-13.8-8.4l-272.5-0.4
	c0,0-13.8,1.7-13.8-19.7s13.2-23.3,13.2-23.3h26.3l247.1-0.8c0,0,14.6,0.1,13.5,21.9C300.2,131.2,301.3,140.2,301.3,140.2z"/>
<path fill="#C84619" stroke="#000000" stroke-miterlimit="10" stroke-opacity="0" d="M279.4,92.2L51,92.9H26.7c0,0-7.3,0.9-10.6,9.8
	l275.8,7.2C292.5,92.3,279.4,92.2,279.4,92.2z"/>
<path fill="#2C3E50" stroke="#000000" stroke-miterlimit="10" stroke-opacity="0" d="M67.7,103.4l63.3-96c0,0,12-12.3,23.5-4
	s117.3,76.5,117.3,76.5s9.9,11,2.4,21.8s-6.2,7.6-6.2,7.6l-201.5-4.5L67.7,103.4z"/>
<text transform="matrix(0.5693 -0.8221 0.8221 0.5693 93.9644 122.9463)" fill="#C5EFF7" font-family="'PrestigeEliteStd-Bd'" font-size="20">3025 2348</text>
<text transform="matrix(0.5722 -0.8201 0.8201 0.5722 146.065 116.7758)" fill="#FFFFFF" font-family="'Arial-Black'" font-size="20">BANK</text>
<path fill="#D45A2D" stroke="#000000" stroke-miterlimit="10" stroke-opacity="0" d="M16,102.6c-0.9,2.5-1.5,5.7-1.5,9.7
	c0,17.9,12.8,16.5,12.8,16.5l251.8,0l2,0c5.5,0,10-3.9,10.2-8.9l0.5-9.4c0-0.2,0-0.4,0-0.7L16,102.6z"/>
</svg>
