<?xml version="1.0" encoding="utf-8"?>
<!-- Generator: Adobe Illustrator 18.0.0, SVG Export Plug-In . SVG Version: 6.00 Build 0)  -->
<!DOCTYPE svg PUBLIC "-//W3C//DTD SVG 1.1//EN" "http://www.w3.org/Graphics/SVG/1.1/DTD/svg11.dtd">
<svg version="1.1" id="Layer_1" xmlns="http://www.w3.org/2000/svg" xmlns:xlink="http://www.w3.org/1999/xlink" x="0px" y="0px"
	 viewBox="145.6 2.8 668.7 554.4" enable-background="new 145.6 2.8 668.7 554.4" xml:space="preserve">
<path fill="#ECECEC" stroke="#000000" stroke-width="3" stroke-miterlimit="10" stroke-opacity="0" d="M145.6,70.4v446
	c0,12.4,10.2,22.6,22.6,22.6h623.6c12.4,0,22.6-10.2,22.6-22.6V67.7c-17.3,0.6-34.2-0.2-51.5,0c-39.5,0.2-79.2,0.6-118.9,0.8
	c-30.8,0.2-61.7-0.6-92.7-0.8c-54.2-0.2-108.9,1.9-163.3,1.7c-20.3,0-39.9,0.4-60.2,0.2c-21.6-0.2-42.9,0.6-64.5,0.2
	C224.6,69.4,184.6,71.3,145.6,70.4z"/>
<path fill="#D8D8D8" stroke="#000000" stroke-width="3" stroke-miterlimit="10" stroke-opacity="0" d="M814.4,67.9V25.4
	c0-12.4-10.2-22.6-22.6-22.6H168.2c-12.4,0-22.6,10.2-22.6,22.6v45L263.4,70l89.7-0.4L481,69L814.4,67.9z"/>
<ellipse fill="#D24D57" stroke="#000000" stroke-width="3" stroke-miterlimit="10" stroke-opacity="0" cx="177.4" cy="34.4" rx="13.2" ry="12.6"/>
<ellipse fill="#F4D03F" stroke="#F5D76E" stroke-width="3" stroke-miterlimit="10" stroke-opacity="0" cx="213.2" cy="34.4" rx="13.2" ry="12.6"/>
<ellipse fill="#87D37C" stroke="#000000" stroke-width="3" stroke-miterlimit="10" stroke-opacity="0" cx="248.9" cy="34.4" rx="13.2" ry="12.6"/>
<path fill="#FFFFFF" stroke="#000000" stroke-width="3" stroke-miterlimit="10" stroke-opacity="0" d="M313.8,51.4h-24.5
	c-4,0-7.1-3.2-7.1-7.1V24.8c0-4,3.2-7.1,7.1-7.1h24.5c4,0,7.1,3.2,7.1,7.1v19.4C321,48.2,317.8,51.4,313.8,51.4z"/>
<path fill="#FFFFFF" stroke="#000000" stroke-width="3" stroke-miterlimit="10" stroke-opacity="0" d="M353.3,51.4h-24.5
	c-4,0-7.1-3.2-7.1-7.1V24.8c0-4,3.2-7.1,7.1-7.1h24.5c4,0,7.1,3.2,7.1,7.1v19.4C360.5,48.2,357.3,51.4,353.3,51.4z"/>
<line fill="none" stroke="#ECECEC" stroke-width="3" stroke-miterlimit="10" x1="307.8" y1="22" x2="292.7" y2="34.4"/>
<line fill="none" stroke="#ECECEC" stroke-width="3" stroke-miterlimit="10" x1="292.9" y1="30.8" x2="306.1" y2="45.5"/>
<line fill="none" stroke="#ECECEC" stroke-width="3" stroke-miterlimit="10" x1="336" y1="22" x2="351.1" y2="34.4"/>
<line fill="none" stroke="#ECECEC" stroke-width="3" stroke-miterlimit="10" x1="350.9" y1="30.8" x2="337.9" y2="45.5"/>
<path fill="#FFFFFF" stroke="#000000" stroke-width="3" stroke-miterlimit="10" stroke-opacity="0" d="M415.4,51.4h-32
	c-4,0-7.1-3.2-7.1-7.1V24.8c0-4,3.2-7.1,7.1-7.1h32c4,0,7.1,3.2,7.1,7.1v19.4C422.5,48.2,419.3,51.4,415.4,51.4z"/>
<path fill="#FFFFFF" fill-opacity="0" stroke="#ECECEC" stroke-miterlimit="10" d="M412.4,45.7H386c-1.3,0-2.3-1.1-2.3-2.3V25.6
	c0-1.3,1.1-2.3,2.3-2.3h26.3c1.3,0,2.3,1.1,2.3,2.3v17.9C414.6,44.8,413.7,45.7,412.4,45.7z"/>
<line fill="none" stroke="#ECECEC" stroke-miterlimit="10" x1="390.9" y1="23.1" x2="390.9" y2="45.7"/>
<line fill="none" stroke="#ECECEC" stroke-miterlimit="10" x1="386.2" y1="27.8" x2="388.1" y2="27.8"/>
<line fill="none" stroke="#ECECEC" stroke-miterlimit="10" x1="386.2" y1="31.6" x2="388.1" y2="31.6"/>
<line fill="none" stroke="#ECECEC" stroke-miterlimit="10" x1="386.2" y1="35.4" x2="388.1" y2="35.4"/>
<path fill="#D8D8D8" stroke="#000000" stroke-width="3" stroke-miterlimit="10" stroke-opacity="0" d="M753.6,136H194.9
	c-9.6,0-17.5-7.9-17.5-17.5l0,0c0-9.6,7.9-17.5,17.5-17.5h558.7c9.6,0,17.5,7.9,17.5,17.5l0,0C771.3,128.1,763.4,136,753.6,136z"/>
<rect x="586.9" y="169.9" fill="#D8D8D8" stroke="#000000" stroke-width="3" stroke-miterlimit="10" stroke-opacity="0" width="184.3" height="140.5"/>
<rect x="385.7" y="169.9" fill="#D8D8D8" stroke="#000000" stroke-width="3" stroke-miterlimit="10" stroke-opacity="0" width="184.3" height="140.5"/>
<rect x="182.5" y="169.9" fill="#D8D8D8" stroke="#000000" stroke-width="3" stroke-miterlimit="10" stroke-opacity="0" width="184.3" height="140.5"/>
<rect x="586.9" y="327.9" fill="#D8D8D8" stroke="#000000" stroke-width="3" stroke-miterlimit="10" stroke-opacity="0" width="184.3" height="140.5"/>
<rect x="385.7" y="327.9" fill="#D8D8D8" stroke="#000000" stroke-width="3" stroke-miterlimit="10" stroke-opacity="0" width="184.3" height="140.5"/>
<rect x="182.5" y="327.9" fill="#D8D8D8" stroke="#000000" stroke-width="3" stroke-miterlimit="10" stroke-opacity="0" width="184.3" height="140.5"/>
<path fill="#6C7A89" stroke="#000000" stroke-width="3" stroke-miterlimit="10" stroke-opacity="0" d="M418,557l-14.9-3.2
	c-5.6-1.1-9.2-6.8-7.9-12.4l20.9-97.1c1.1-5.6,6.8-9.2,12.4-7.9l14.9,3.2c5.6,1.1,9.2,6.8,7.9,12.4l-20.9,97.1
	C429.1,554.7,423.7,558.3,418,557z"/>
<rect x="433.9" y="374.7" transform="matrix(-0.9775 -0.2111 0.2111 -0.9775 789.5707 897.6901)" fill="#95A5A6" stroke="#000000" stroke-width="3" stroke-miterlimit="10" stroke-opacity="0" width="17.7" height="64"/>
<ellipse transform="matrix(0.2111 -0.9775 0.9775 0.2111 84.7098 686.6187)" fill="#81CFE0" fill-opacity="0.48" stroke="#6C7A89" stroke-width="6" stroke-miterlimit="10" cx="467.7" cy="290.8" rx="90.9" ry="89.5"/>
</svg>
