<?xml version="1.0" encoding="utf-8"?>
<!-- Generator: Adobe Illustrator 18.0.0, SVG Export Plug-In . SVG Version: 6.00 Build 0)  -->
<!DOCTYPE svg PUBLIC "-//W3C//DTD SVG 1.1//EN" "http://www.w3.org/Graphics/SVG/1.1/DTD/svg11.dtd">
<svg version="1.1" id="Layer_1" xmlns="http://www.w3.org/2000/svg" xmlns:xlink="http://www.w3.org/1999/xlink" x="0px" y="0px"
	 viewBox="170 -19 622 587.3" enable-background="new 170 -19 622 587.3" xml:space="preserve">
<g>
	<defs>
		<path id="SVGID_1_" d="M792,279c0,171.8-145.2,278-317,278S170,450.8,170,279S324.2-19,496-19S792,107.2,792,279z"/>
	</defs>
	<clipPath id="SVGID_2_">
		<use xlink:href="#SVGID_1_"  overflow="visible"/>
	</clipPath>
	<path clip-path="url(#SVGID_2_)" fill="#EDCF93" stroke="#000000" stroke-miterlimit="10" stroke-opacity="0" d="M603.6,94.1V148
		l56.5-35.7c0,0,13.3-16.8,4.4-29.4c-9-12.5-19.5-10.1-19.5-10.1L603.6,94.1z"/>
	<path clip-path="url(#SVGID_2_)" fill="#EDCF93" stroke="#EDCF93" stroke-miterlimit="10" d="M463.1,465.1l-138.6-59.3l35.7-84
		l1.8,6.1l6.5,12.5l7.8,10.8l12.5,15.8l10.1,12.5c0,0,13.6,18.7,42.3-4.6s23.5-75.3,23.5-75.3h75.5h16c0,0-1.6,2.4,3.4,15
		c4.9,12,17.3,9.4,17.3,9.4l18.1-5.5l25.7-11.7l-5.1,5.5l-18.2,14l-19.8,10.8l-6.2,9.7l-4.9,6.1l-7.4,5.1l-11.5,22.5L534.3,399
		l-12.8,12.5l-12.4,9l-10.1,6.2l-8.2,4.2l-11.2,3.9L463.1,465.1z"/>
	<polygon clip-path="url(#SVGID_2_)" fill="#EDCF93" stroke="#000000" stroke-miterlimit="10" stroke-opacity="0" points="
		449.9,191.5 428.2,209.7 426.3,212.6 425.5,213.8 424.2,215.4 422.4,216.5 423.4,218.1 424.3,219.7 425,221.2 425.4,223.9 
		425.8,226.3 425.6,229.5 425.4,233.2 431.8,239.9 438,245.8 442.1,250.4 445.6,255.4 449.9,261.7 	"/>
	<path clip-path="url(#SVGID_2_)" fill="#59ABE3" stroke="#EDCF93" stroke-miterlimit="10" stroke-opacity="0" d="M586.7,298.9h-122
		c-8.9,0-16.2-7.3-16.2-16.2V25.3c0-8.9,7.3-16.2,16.2-16.2h122c8.9,0,16.2,7.3,16.2,16.2v257.4
		C602.9,291.7,595.6,298.9,586.7,298.9z"/>
	<path clip-path="url(#SVGID_2_)" fill="#6C7A89" stroke="#EDCF93" stroke-miterlimit="10" stroke-opacity="0" d="M583.3,295.6
		H468.8c-8.9,0-16.2-7.3-16.2-16.2V28c0-8.9,7.3-16.2,16.2-16.2h114.6c8.9,0,16.2,7.3,16.2,16.2v251.4
		C599.5,288.3,592.2,295.6,583.3,295.6z"/>
	<path clip-path="url(#SVGID_2_)" fill="#FFFFFF" stroke="#EDCF93" stroke-miterlimit="10" stroke-opacity="0" d="M584.8,272.3
		H467.4c-6.3,0-11.5-5.1-11.5-11.5V46.2c0-6.3,5.1-11.5,11.5-11.5h117.4c6.3,0,11.5,5.1,11.5,11.5v214.6
		C596.3,267.1,591.2,272.3,584.8,272.3z"/>
	<path clip-path="url(#SVGID_2_)" fill="#FDE3A7" stroke="#000000" stroke-miterlimit="10" stroke-opacity="0" d="M625.7,282.9
		c0,0-6.7-15.6-22.4-11.6c-15.6,4-19,5.5-19,5.5l-8,3.5l-5.4,2.7l-5.9,3.1l-2.4,2l-2,1.8l-2,2.7l-2.6,6.6l-0.1,1.2l0.1,2l0.3,2
		l0.4,2.2l0.7,3l0.5,2.2l0.7,2.4l0.7,2l0.5,1.1l0.4,0.8l0.4,0.5l0.4,0.7l0.5,0.7l0.8,0.8l0.8,0.8l0.8,0.5l1.1,0.7l1.2,0.7l1.6,0.7
		l1.6,0.4l1.5,0.3l2.6,0.1h0.8h1.1l1.3-0.3l1.5-0.5l2.3-0.8l8-2.7l5.3-1.9l2.2-0.8l1.6-0.7l4.2-1.6l4.3-1.8l4-1.6l6.3-2.6l2.6-0.9
		l5.1-4.9c0,0,3.5-6.2,3.1-11.3C626.7,287.5,625.7,282.9,625.7,282.9z"/>
	<polyline clip-path="url(#SVGID_2_)" fill="#FDE3A7" stroke="#000000" stroke-miterlimit="10" stroke-opacity="0" points="
		464.2,298.9 463,293.8 461.4,288 459.2,282.1 456.9,275.5 453.5,268.8 449.5,261.7 446.9,257.8 445.1,255 443.8,253 442.1,250.4 
		440.3,248.4 438,245.8 435.5,243.3 433.6,241.5 431.8,239.9 430,237.8 428.3,236.3 426.9,234.5 425.4,233.2 425.6,229.5 
		425.8,226.3 425,221.2 424.3,219.7 423.4,218.1 422.4,216.5 424.2,215.4 425.5,213.8 428.1,209.7 429.7,205.5 431,202.3 
		432.7,199.1 433.7,195.7 435.2,192.7 436.2,188.4 437.2,183.4 438.9,177.4 439.8,169.3 440.6,163.6 441,160.1 444.1,158 
		448.8,154.1 451.3,151 454.5,146.5 455.4,144.1 458,139.5 459.3,135.6 461.1,130.6 461.9,127.4 462.6,122.9 463.8,119.2 
		464.7,115.1 464.7,111.6 464.7,108.9 464.7,106.2 464.3,101.9 463.4,97.9 462.3,93.7 461,90.3 458.3,85.2 455.8,82.1 450.8,77.2 
		447.7,75.8 447.7,84.8 446.7,87.5 444.9,91.5 443,95.6 439,101.5 434.3,108 422.4,112.7 415.1,116.6 408.4,120.5 404.9,123.1 
		402.2,125.8 400.4,128.7 397.5,133.2 393.6,142.5 385.5,159 376.9,177.4 368.2,195.6 360.4,212.1 358.4,217.7 357.2,221.4 
		355.3,228.9 354.8,233.4 353.4,243.6 353.1,249.1 352.9,259.5 352.9,270.6 353.8,282.8 354.9,292.3 356.9,307 360.3,321.9 
		361.1,324.8 361.9,327.9 368.4,340.5 376,351.2 388.6,366.9 398.7,379.5 399.1,380.1 399.9,380.9 400.6,381.4 401.1,381.8 
		401.7,382.4 402.1,382.6 402.7,383.2 403.3,383.5 403.8,383.9 404.8,384.4 405.4,384.7 406.2,385.1 407.3,385.6 408,385.7 
		408.8,386.1 409.7,386.4 410.5,386.6 411.6,386.8 412.4,387 413.6,387.1 414.6,387.1 415.5,387.1 418,387.1 419.6,387 421.2,386.7 
		422.8,386.3 424.7,385.7 426.9,385.1 428.5,384.3 429.8,383.7 430.8,383.2 431.7,382.8 432.7,382.2 433.5,381.8 434.9,380.9 
		437.4,379.3 439,378.2 441.3,376.4 443.2,374.8 444.8,373.3 446.1,372.1 446.9,371.3 447.6,370.5 449,368.9 450.4,366.9 
		452.2,364.6 453.7,362 455.3,359.1 456.9,355.7 458,353.4 458.5,351.6 459.3,349.5 460.4,346 461.5,342.5 461.8,340.9 462.2,339.2 
		462.7,337 463.2,334.1 463.5,332.2 463.8,330.1 464.2,326.3 464.5,323.5 464.6,321.5 464.7,319.8 465,314 465,313 465,311.3 
		465,308.6 464.9,305.5 464.7,302.9 464.6,300.8 464.3,298.9 	"/>
	<path clip-path="url(#SVGID_2_)" fill="#EDCF93" stroke="#000000" stroke-miterlimit="10" stroke-opacity="0" d="M603.6,214
		l-0.5-10c0,0,8.4,4.2,15-0.7c6.6-5,10.5-5.8,10.5-5.8l-12.1,11.3l-12.7,5.7L603.6,214L603.6,214z"/>
	<polygon clip-path="url(#SVGID_2_)" fill="#26A65B" stroke="#000000" stroke-miterlimit="10" stroke-opacity="0" points="
		487.2,473.9 452.2,567.8 225.8,567.8 301.2,394.4 464.5,464 	"/>
	<path clip-path="url(#SVGID_2_)" fill="#FFFFFF" stroke="#000000" stroke-miterlimit="10" stroke-opacity="0" d="M579.4,256.9
		c0,0-10.4-17,1.8-27.2c12-10.2,20.8-15,20.8-15l12.7-5.4c0,0,5.7-2.8,12.8,0.3c7.1,3.1,9,7.1,9,7.1s7,8,5.5,14.8s-5,12-5,12l-7,6.3
		l-5.4,3.1l-6.6,3.8l-6.2,3.6l-1.9,1.3l-2.8,1.9l-4,2l-6.2,1.3c0,0-8-0.5-11.5-3.6C582.1,260.1,579.4,256.9,579.4,256.9z"/>
	<path clip-path="url(#SVGID_2_)" fill="#FDE3A7" stroke="#000000" stroke-miterlimit="10" stroke-opacity="0" d="M640.9,162.7
		c0,0-10.4-15.8-25.2-9.2s-18.7,11.7-18.7,11.7s-15,12.4-7.7,25.9c7.1,13.5,13.9,13.6,13.9,13.6l1.5,0.5l1.6,0.4l1.5,0.3l1.5,0.3
		h1.1l1.3,0.1l1.6-0.5l1.8-0.7l1.5-0.8l1.2-0.8l1.3-1.1l1.3-0.9l1.6-1.1l1.3-0.8l1.1-0.5l1.5-0.7l1.1-0.4l1.3-0.4
		c0,0,13.2-7.5,15.6-15.4C646.4,174.3,640.9,162.7,640.9,162.7z"/>
	
		<path clip-path="url(#SVGID_2_)" fill="#FFC7B4" fill-opacity="0.52" stroke="#000000" stroke-miterlimit="10" stroke-opacity="0" d="
		M579.6,321l-1.2-1.2l-1.8-2.6l-3-5.7l-2.2-7.3l-0.3-6.1v-7.4v-1.3v-1.3l5.5-0.7l6.6-0.9l5.8-0.4c0,0,8.4-1.2,10.9,3.5
		c2.6,4.7,3.5,9.3,3.5,9.3v2.7l-2.2,3.5l-4.7,5.9l-6.7,5l-4.9,2.8L579.6,321z"/>
	
		<polygon clip-path="url(#SVGID_2_)" fill="#FFC7B4" fill-opacity="0.52" stroke="#000000" stroke-miterlimit="10" stroke-opacity="0" points="
		447.7,75.8 443.4,73.3 421.5,113.1 434.3,108 439,101.5 443,95.6 444.9,91.5 446.7,87.5 447.7,84.8 	"/>
	<polygon clip-path="url(#SVGID_2_)" fill="#EDCF93" stroke="#000000" stroke-miterlimit="10" stroke-opacity="0" points="
		602.9,271.5 602.9,265 614.7,258.1 630.2,249.9 607.3,270.6 	"/>
	<path clip-path="url(#SVGID_2_)" fill="#FDE3A7" stroke="#000000" stroke-miterlimit="10" stroke-opacity="0" d="M639.3,220.4
		c0,0-9.4-15.9-23.3-11.5c-13.9,4.4-17.5,7.4-17.5,7.4l-11.1,8.2c0,0-22.2,12-8,32.3c14.3,20.4,31.8,3.9,31.8,3.9l18.9-10.8
		c0,0,12.9-8.9,11.9-17.8C641,223.2,639.3,220.4,639.3,220.4z"/>
	
		<path clip-path="url(#SVGID_2_)" fill="#FFC7B4" fill-opacity="0.52" stroke="#000000" stroke-miterlimit="10" stroke-opacity="0" d="
		M590.6,228.6l2.7,4.6l2.8,4.4l3.1,5l1.3,3.8l1.8,4.3l1.9,5.3l1.2,4.3c0,0,27.6-14.7,18.7-30.9S590.6,228.6,590.6,228.6z"/>
	
		<path clip-path="url(#SVGID_2_)" fill="#FFC7B4" fill-opacity="0.52" stroke="#000000" stroke-miterlimit="10" stroke-opacity="0" d="
		M619.3,199.2c0,0-10-27.6-15.4-31.1c-5.4-3.5,20.1-6.6,20.1-6.6s7.3-0.1,10.1,6.9c2.8,7,2.6,10,2.6,10S624,197.9,619.3,199.2z"/>
	<g clip-path="url(#SVGID_2_)">
		<g opacity="0">
			<path d="M568.2,330.3c2.6,0,2.6-4,0-4S565.5,330.3,568.2,330.3L568.2,330.3z"/>
		</g>
	</g>
	<path clip-path="url(#SVGID_2_)" fill="#95A5A6" stroke="#000000" stroke-miterlimit="10" stroke-opacity="0" d="M542,28.4h-31.7
		c-1.3,0-2.4-1.1-2.4-2.4l0,0c0-1.3,1.1-2.4,2.4-2.4H542c1.3,0,2.4,1.1,2.4,2.4l0,0C544.2,27.4,543.2,28.4,542,28.4z"/>
</g>
</svg>
