<?xml version="1.0" encoding="utf-8"?>
<!-- Generator: Adobe Illustrator 18.0.0, SVG Export Plug-In . SVG Version: 6.00 Build 0)  -->
<!DOCTYPE svg PUBLIC "-//W3C//DTD SVG 1.1//EN" "http://www.w3.org/Graphics/SVG/1.1/DTD/svg11.dtd">
<svg version="1.1" id="Layer_1" xmlns="http://www.w3.org/2000/svg" xmlns:xlink="http://www.w3.org/1999/xlink" x="0px" y="0px"
	 viewBox="0 0 960 560" enable-background="new 0 0 960 560" xml:space="preserve">
<g>
	<path fill="#ECECEC" stroke="#000000" stroke-miterlimit="10" stroke-opacity="0" d="M902.3,557.2H61.6c-31.8,0-57.7-26-57.7-57.7
		v-436c0-31.8,26-57.7,57.7-57.7h840.7c31.8,0,57.7,26,57.7,57.7v436.5C960,531.2,934,557.2,902.3,557.2z"/>
	<text transform="matrix(1 0 0 1 168.4223 376.2396)" fill="#4597CF" font-family="'MyriadPro-BoldIt'" font-size="307.9699">VISA</text>
	<polygon fill="#F7CA18" points="244,223.7 196.3,182.8 175.6,171.7 156.9,169.3 129.9,169.3 132.8,154.9 237.7,154.9 	"/>
	<path fill="#F7CA18" d="M4.8,448.4h952.8l2.4,52c0,0-3.8,58.7-57.7,58.7s-839.7,0-839.7,0S-12,559.1,4.8,448.4z"/>
	<path fill="#4597CF" d="M4.8,116.4h952.8l2.4-52c0,0-3.8-58.7-57.7-58.7s-839.7,0-839.7,0S-12,5.7,4.8,116.4z"/>
</g>
</svg>
